<?xml version="1.0" encoding="utf-8"?>
<!-- Generator: Adobe Illustrator 26.0.3, SVG Export Plug-In . SVG Version: 6.00 Build 0)  -->
<svg version="1.1" id="Слой_1" xmlns="http://www.w3.org/2000/svg" xmlns:xlink="http://www.w3.org/1999/xlink" x="0px" y="0px"
	 viewBox="0 0 105.83 61.53" style="enable-background:new 0 0 105.83 61.53;" xml:space="preserve">
<style type="text/css">
	.st0{fill:none;stroke:#000000;stroke-miterlimit:10;}
</style>
<path class="st0" d="M70.7,41.79H34.99c-1.35-8.64-2.7-17.27-4.05-25.91c14.52-0.02,29.05-0.03,43.57-0.05
	C73.24,24.48,71.97,33.13,70.7,41.79z"/>
<g>
	<path class="st0" d="M30.94,15.88c14.52-0.02,29.05-0.03,43.57-0.05c-1.25,8.52-2.5,17.05-3.75,25.57H34.68
		C33.43,32.89,32.18,24.38,30.94,15.88z"/>
	<line class="st0" x1="34.68" y1="37.6" x2="70.76" y2="37.6"/>
	<line class="st0" x1="33.74" y1="33.81" x2="71.87" y2="33.81"/>
	<line class="st0" x1="32.93" y1="29.44" x2="72.47" y2="29.73"/>
	<path class="st0" d="M32.27,24.97c13.63,0,27.27,0,40.9,0"/>
	<path class="st0" d="M31.54,20c10.88,0.02,28.87,0.05,42.36,0"/>
	<path class="st0" d="M67.19,15.84c-0.82,8.52-1.63,17.04-2.45,25.56"/>
	<path class="st0" d="M60.47,16.26c-0.58,8.38-1.16,16.76-1.74,25.14"/>
	<path class="st0" d="M52.47,15.85c0.08,8.51,0.17,17.03,0.25,25.54"/>
	<path class="st0" d="M45.23,15.86c0.49,8.51,0.98,17.02,1.47,25.54"/>
	<path class="st0" d="M38,15.87c0.9,8.51,1.8,17.02,2.69,25.53"/>
</g>
<path class="st0" d="M30.94,15.88c-1.92-3.43-4.96-5.18-7.72-4.45c-1.81,0.48-3,1.9-3.56,2.68"/>
<path class="st0" d="M34.99,41.79c-1.53,1.19-2.21,2.21-2.04,3.07c0.63,3.21,13.24,4.06,37.82,2.55"/>
<path class="st0" d="M38.64,49.42L38.64,49.42c0.62-0.93,1.88-1.18,2.81-0.55v0c0.93,0.62,1.18,1.88,0.55,2.81l0,0
	c-0.62,0.93-1.88,1.18-2.81,0.55l0,0C38.26,51.61,38.01,50.35,38.64,49.42z"/>
<path class="st0" d="M61.79,49.65L61.79,49.65c0.62-0.93,1.88-1.18,2.81-0.55l0,0c0.93,0.62,1.18,1.88,0.55,2.81l0,0
	c-0.62,0.93-1.88,1.18-2.81,0.55l0,0C61.41,51.84,61.16,50.58,61.79,49.65z"/>
</svg>
